<svg xmlns="http://www.w3.org/2000/svg" xmlns:xlink="http://www.w3.org/1999/xlink" width="500" zoomAndPan="magnify" viewBox="0 0 375 374.999991" height="500" preserveAspectRatio="xMidYMid meet" version="1.0"><defs><g><g id="id1"/><g id="id2"/></g><clipPath id="id3"><path d="M 5.78125 33 L 351 33 L 351 349 L 5.78125 349 Z M 5.78125 33 " clip-rule="nonzero"/></clipPath></defs><g clip-path="url(#id3)"><path fill="rgb(54.119873%, 52.549744%, 50.588989%)" d="M 60.765625 237.875 C 58.574219 232.558594 55.753906 227.554688 54.1875 222.082031 C 53.71875 220.671875 52.777344 219.578125 51.679688 218.640625 C 48.703125 216.136719 45.414062 213.949219 42.125 212.074219 C 40.871094 211.445312 40.246094 212.386719 39.304688 212.699219 L 34.292969 211.917969 C 34.136719 211.132812 33.507812 210.664062 32.726562 210.507812 C 32.414062 210.507812 31.941406 210.664062 31.628906 210.664062 C 31.785156 210.820312 31.941406 211.289062 32.097656 211.289062 C 32.882812 211.445312 33.664062 211.601562 34.292969 211.757812 C 35.859375 213.324219 37.894531 214.417969 40.089844 214.886719 L 48.390625 219.109375 C 48.234375 220.203125 47.292969 219.890625 46.667969 219.734375 C 45.257812 219.578125 43.847656 219.109375 42.59375 218.484375 C 36.484375 215.199219 30.375 211.917969 24.265625 208.476562 C 22.542969 207.539062 22.699219 207.222656 24.894531 205.660156 C 23.011719 203.628906 21.445312 201.28125 20.195312 198.78125 C 17.53125 194.714844 13.769531 191.273438 9.382812 188.925781 C 8.445312 188.457031 7.503906 188.144531 6.566406 187.519531 C 6.40625 187.675781 5.78125 186.738281 5.9375 186.582031 C 6.40625 185.800781 7.347656 185.957031 7.976562 186.269531 C 9.542969 186.894531 10.949219 187.675781 12.203125 188.613281 C 14.867188 190.492188 17.6875 192.054688 20.820312 193.304688 C 21.601562 193.617188 22.230469 194.085938 23.011719 193.773438 C 24.421875 193.148438 25.363281 193.929688 26.144531 194.871094 C 27.554688 196.433594 28.808594 197.996094 30.21875 199.5625 C 33.351562 203.316406 37.113281 206.597656 41.5 208.945312 C 44.003906 210.351562 46.355469 211.917969 48.859375 213.480469 C 49.175781 213.636719 49.644531 213.636719 49.957031 213.480469 C 50.269531 213.167969 50.269531 212.855469 50.269531 212.542969 C 49.800781 210.820312 49.175781 208.945312 48.546875 207.222656 C 46.824219 203.160156 45.570312 198.78125 44.789062 194.402344 C 43.847656 188.457031 41.8125 182.984375 40.558594 177.199219 C 40.558594 176.886719 40.871094 176.574219 41.183594 176.257812 C 41.5 175.945312 41.5 176.417969 41.65625 176.417969 C 41.96875 176.730469 42.28125 176.886719 42.59375 177.199219 C 48.234375 184.078125 52.777344 191.585938 56.378906 199.71875 C 57.789062 202.375 58.730469 205.347656 58.886719 208.320312 C 58.886719 211.445312 60.296875 214.730469 61.082031 217.859375 L 59.828125 218.953125 C 58.886719 216.292969 57.945312 213.480469 57.320312 210.820312 C 56.222656 205.191406 54.1875 199.875 51.367188 194.871094 C 49.800781 192.054688 48.078125 189.238281 46.511719 186.425781 C 46.511719 186.269531 46.511719 186.113281 46.355469 185.800781 C 46.355469 185.644531 46.199219 185.488281 46.199219 185.332031 C 45.886719 184.859375 45.414062 184.078125 44.945312 184.390625 C 44.003906 185.015625 44.632812 185.644531 45.414062 186.113281 C 45.726562 187.832031 45.726562 189.710938 46.199219 191.429688 C 48.078125 199.5625 50.585938 207.378906 53.875 215.042969 C 55.441406 218.328125 56.851562 221.613281 58.105469 225.050781 C 58.261719 226.617188 59.355469 227.867188 60.765625 228.335938 L 61.394531 224.113281 L 62.648438 224.269531 C 62.648438 225.835938 63.273438 227.398438 64.214844 228.804688 C 65.464844 227.554688 64.683594 225.679688 65.78125 224.269531 C 65.9375 224.582031 66.09375 224.738281 66.25 225.050781 C 66.875 228.648438 66.40625 232.402344 64.839844 235.6875 C 64.683594 236.15625 63.898438 236.3125 63.585938 236.78125 L 63.742188 236.9375 C 63.742188 236.625 63.742188 236.15625 63.742188 235.84375 C 63.742188 235.53125 63.585938 235.0625 63.429688 234.75 C 63.117188 234.90625 62.960938 235.21875 62.804688 235.375 C 62.648438 235.6875 62.648438 236.15625 62.488281 236.46875 Z M 37.894531 209.726562 C 36.328125 208.476562 34.917969 207.378906 33.507812 206.285156 C 29.90625 203.628906 26.460938 200.65625 23.328125 197.371094 C 23.011719 197.214844 22.699219 197.058594 22.230469 197.214844 C 21.761719 197.371094 21.761719 197.683594 22.074219 198.152344 C 24.265625 201.4375 26.773438 204.410156 29.75 206.910156 C 31.941406 208.789062 34.917969 209.882812 37.894531 209.726562 Z M 70.792969 265.085938 C 69.226562 261.335938 67.660156 257.582031 65.9375 253.828125 C 65.308594 252.578125 64.996094 251.167969 65.152344 249.605469 L 66.5625 248.511719 L 66.875 248.355469 C 67.816406 252.109375 69.070312 255.859375 70.636719 259.457031 C 71.890625 258.675781 71.417969 257.894531 71.261719 257.113281 C 70.792969 255.234375 69.695312 253.515625 70.007812 251.324219 L 73.300781 253.046875 C 74.867188 259.613281 78.15625 265.402344 80.820312 271.5 C 81.601562 272.90625 82.226562 274.316406 83.011719 275.722656 C 83.167969 276.035156 83.480469 276.035156 83.953125 275.722656 C 84.421875 275.410156 84.890625 274.941406 85.363281 274.628906 C 85.832031 275.722656 86.144531 276.816406 86.144531 278.066406 C 85.675781 280.882812 86.613281 283.699219 88.808594 285.574219 C 89.90625 286.511719 89.433594 287.765625 89.121094 288.859375 C 87.398438 288.546875 86.769531 286.824219 85.519531 286.042969 C 84.578125 284.011719 83.011719 282.445312 80.976562 281.664062 C 79.09375 280.882812 77.683594 278.851562 76.117188 277.285156 C 73.613281 274.628906 71.261719 271.96875 68.914062 269.308594 C 68.128906 268.683594 67.347656 268.058594 66.5625 267.589844 C 65.308594 266.339844 64.371094 264.773438 63.585938 263.054688 C 62.332031 259.613281 60.765625 256.328125 58.886719 253.203125 C 57.476562 250.542969 56.066406 247.730469 54.65625 245.070312 C 54.65625 244.601562 54.65625 244.289062 54.65625 243.820312 C 54.5 243.195312 54.1875 242.566406 53.5625 242.722656 C 52.933594 242.878906 52.621094 243.195312 52.464844 243.976562 C 52.308594 244.757812 52.152344 245.070312 51.996094 245.695312 C 51.679688 245.851562 51.210938 245.695312 51.054688 245.539062 L 51.367188 243.507812 C 51.523438 242.722656 51.523438 241.785156 50.742188 241.316406 C 47.609375 239.441406 44.476562 237.40625 41.34375 235.6875 C 39.773438 235.21875 38.207031 235.0625 36.640625 235.0625 C 37.425781 232.871094 37.425781 232.871094 35.546875 231.621094 C 30.21875 228.335938 24.421875 225.835938 18.46875 223.957031 C 18 223.644531 17.53125 223.332031 17.058594 223.019531 C 15.492188 222.394531 15.023438 223.175781 14.867188 224.582031 C 14.867188 224.738281 14.554688 224.738281 14.398438 224.894531 C 13.300781 223.957031 12.359375 222.863281 10.792969 222.863281 C 10.480469 222.863281 10.011719 222.238281 10.167969 222.082031 C 10.480469 221.613281 10.949219 220.988281 11.421875 220.832031 C 14.242188 220.359375 17.21875 220.671875 19.878906 221.613281 C 25.988281 223.644531 31.941406 226.304688 37.582031 229.585938 C 39.773438 230.996094 41.65625 233.027344 43.847656 234.4375 C 47.609375 236.9375 51.523438 239.128906 55.285156 241.472656 C 56.695312 242.253906 58.105469 243.195312 59.355469 244.132812 C 59.984375 244.601562 60.609375 245.539062 60.609375 246.164062 C 60.140625 248.667969 61.707031 250.386719 62.648438 252.265625 C 63.742188 254.609375 64.683594 257.113281 65.464844 259.613281 C 66.25 262.429688 67.660156 264.929688 69.851562 266.808594 C 71.734375 268.214844 73.300781 270.09375 74.550781 272.125 C 75.179688 273.0625 76.117188 274 76.902344 274.785156 C 77.214844 274.941406 77.527344 275.097656 78 274.941406 C 78.46875 274.785156 78.46875 274.472656 78.15625 274 Z M 117.164062 327.328125 C 117.320312 327.644531 117.320312 328.113281 117.632812 328.269531 C 118.730469 328.738281 119.824219 329.050781 122.019531 329.832031 L 117.945312 329.988281 C 116.378906 329.207031 114.65625 329.675781 113.558594 330.925781 C 112.304688 332.804688 110.738281 332.804688 108.859375 332.335938 C 108.390625 332.335938 108.078125 332.179688 107.605469 332.335938 C 102.4375 329.363281 96.796875 326.703125 92.097656 323.109375 C 90.0625 321.542969 87.867188 319.980469 85.832031 318.414062 C 83.953125 316.851562 81.914062 315.601562 79.566406 314.820312 C 78 314.351562 78 313.878906 79.722656 312.628906 C 79.878906 312.472656 80.035156 312.472656 80.347656 312.472656 C 81.445312 312.628906 82.542969 313.253906 83.324219 314.035156 C 83.953125 314.820312 84.734375 315.289062 85.675781 315.445312 C 87.085938 315.757812 88.339844 316.382812 89.589844 317.007812 C 95.230469 320.605469 101.027344 323.734375 107.136719 326.390625 C 109.800781 327.800781 112.933594 327.957031 115.753906 327.015625 Z M 85.363281 274.628906 C 84.890625 274.941406 84.421875 275.410156 83.953125 275.722656 C 83.480469 276.035156 83.167969 276.191406 83.011719 275.722656 C 82.226562 274.316406 81.601562 272.90625 80.820312 271.5 C 81.445312 271.5 82.226562 271.1875 82.070312 270.5625 C 81.757812 268.683594 81.289062 266.964844 80.976562 265.242188 C 80.660156 263.679688 80.503906 262.117188 80.503906 260.394531 C 80.503906 260.082031 80.976562 259.613281 81.289062 259.457031 C 82.226562 258.988281 82.226562 259.769531 82.386719 260.394531 C 82.542969 261.023438 82.855469 261.023438 83.011719 261.335938 C 83.167969 261.023438 83.636719 260.550781 83.480469 260.394531 C 83.167969 258.988281 82.855469 257.582031 82.542969 256.328125 C 82.386719 255.546875 81.601562 254.453125 82.386719 254.140625 C 83.636719 253.671875 83.636719 255.078125 84.265625 255.859375 C 85.203125 256.957031 86.144531 257.894531 87.242188 258.832031 C 87.554688 258.988281 87.867188 259.144531 88.179688 258.988281 C 88.496094 258.675781 88.652344 258.363281 88.808594 258.050781 C 89.277344 256.644531 87.867188 254.765625 89.589844 253.515625 C 89.90625 253.359375 89.746094 252.421875 89.433594 251.792969 C 87.867188 247.886719 85.675781 244.601562 81.445312 243.035156 C 80.503906 242.878906 79.566406 242.097656 79.09375 241.316406 C 79.09375 241.160156 79.09375 240.847656 79.09375 240.691406 C 79.253906 240.535156 79.410156 240.378906 79.566406 240.378906 C 80.347656 240.378906 81.132812 240.378906 81.914062 240.535156 C 87.554688 242.410156 91.472656 247.414062 91.785156 253.359375 C 91.785156 254.921875 91.785156 256.644531 91.472656 258.207031 C 91.472656 259.613281 90.84375 261.023438 89.746094 261.960938 C 88.339844 262.742188 89.277344 264.773438 87.398438 265.714844 C 85.203125 266.808594 84.265625 269.308594 85.363281 271.5 C 85.675781 272.59375 85.519531 273.6875 85.363281 274.628906 Z M 137.839844 328.894531 C 135.175781 325.453125 134.550781 321.074219 133.609375 317.007812 C 132.984375 314.507812 132.671875 311.847656 130.007812 310.285156 C 127.34375 306.21875 124.839844 301.996094 125.933594 296.835938 C 126.089844 295.894531 126.25 294.800781 126.40625 293.863281 C 126.875 291.359375 127.03125 291.203125 130.632812 290.578125 L 130.792969 290.890625 C 130.007812 291.984375 128.753906 292.769531 128.753906 294.332031 C 128.753906 295.894531 128.441406 297.148438 128.285156 298.554688 C 127.972656 302.777344 129.695312 306.84375 133.140625 309.5 C 133.609375 311.378906 134.863281 309.972656 135.648438 309.972656 L 137.214844 310.910156 C 137.996094 311.378906 138.78125 311.378906 139.25 310.597656 C 139.71875 309.816406 139.5625 308.71875 138.625 308.25 C 138.625 308.25 138.46875 308.25 138.46875 308.09375 C 137.683594 307.9375 136.902344 307.9375 136.117188 307.9375 L 133.609375 307.3125 C 133.609375 306.375 133.925781 305.59375 134.863281 305.59375 C 135.648438 305.75 136.429688 305.90625 137.214844 306.0625 C 137.839844 306.21875 138.308594 305.90625 138.46875 305.277344 C 138.46875 304.964844 138.46875 304.808594 138.308594 304.496094 C 137.996094 303.714844 137.683594 303.089844 137.371094 302.308594 C 137.214844 301.839844 136.742188 301.214844 137.527344 300.742188 C 138.152344 300.429688 138.78125 300.585938 139.09375 301.214844 C 140.503906 302.933594 141.285156 305.121094 141.285156 307.3125 C 141.128906 308.875 141.285156 310.597656 141.285156 312.160156 C 141.285156 312.785156 140.816406 313.253906 140.347656 313.253906 C 140.347656 313.253906 140.191406 313.253906 140.191406 313.253906 C 138.9375 313.253906 137.839844 313.253906 137.839844 314.976562 C 137.839844 315.445312 137.214844 316.070312 136.902344 316.539062 C 135.960938 317.632812 135.804688 319.199219 136.585938 320.449219 C 137.527344 322.949219 138.46875 325.296875 139.40625 327.800781 Z M 90.375 296.363281 C 90.84375 295.269531 91.472656 294.175781 90.21875 293.238281 C 89.90625 292.769531 89.589844 292.300781 89.433594 291.671875 C 89.589844 291.046875 89.746094 290.578125 89.746094 290.109375 C 90.53125 291.046875 91.472656 291.828125 92.097656 292.925781 C 94.449219 296.363281 97.582031 299.023438 101.183594 300.742188 C 102.59375 301.527344 104.003906 302.464844 105.257812 303.558594 C 104.628906 304.652344 103.691406 304.339844 102.75 304.496094 C 102.59375 304.183594 102.4375 303.714844 102.125 303.558594 C 101.808594 303.402344 101.496094 303.558594 101.183594 303.558594 C 101.339844 303.714844 101.496094 304.183594 101.652344 304.183594 C 101.96875 304.339844 102.4375 304.339844 102.75 304.496094 C 102.90625 304.808594 102.90625 305.277344 103.0625 305.59375 C 105.257812 307.9375 107.449219 310.285156 109.644531 312.472656 C 110.269531 313.097656 111.054688 312.941406 111.523438 312.003906 C 112.933594 310.910156 112.933594 310.910156 111.835938 309.5 C 111.367188 308.40625 110.425781 307.3125 111.054688 305.90625 L 112.460938 304.652344 C 114.5 308.09375 114.65625 312.316406 117.164062 315.601562 C 117.320312 315.757812 117.320312 315.914062 117.164062 316.070312 C 114.8125 318.886719 118.414062 319.667969 119.042969 321.542969 C 119.042969 321.855469 118.886719 322.324219 118.886719 322.636719 C 114.65625 319.980469 110.738281 316.695312 107.449219 312.941406 C 101.96875 307 96.171875 301.683594 90.375 296.363281 Z M 89.746094 290.109375 C 89.589844 290.734375 89.433594 291.203125 89.433594 291.671875 C 88.023438 290.890625 85.832031 292.457031 84.734375 289.953125 C 84.265625 288.703125 82.699219 288.234375 81.289062 287.609375 C 77.683594 286.199219 73.769531 285.730469 70.324219 284.011719 C 64.996094 281.507812 59.515625 279.476562 54.34375 276.503906 C 54.03125 275.722656 53.71875 274.941406 52.621094 275.566406 C 52.464844 275.566406 52.933594 276.503906 53.089844 276.972656 C 53.246094 277.441406 53.71875 277.441406 54.03125 277.753906 C 55.285156 279.632812 56.539062 281.351562 57.632812 283.230469 C 57.945312 283.855469 57.632812 284.324219 56.851562 284.480469 C 53.402344 280.257812 49.957031 275.878906 46.511719 271.65625 C 45.886719 270.875 45.257812 269.9375 44.789062 269.152344 C 44.476562 268.683594 44.476562 268.214844 44.945312 268.214844 C 45.257812 268.214844 45.726562 268.214844 46.042969 268.371094 C 46.980469 269.152344 47.921875 269.9375 48.859375 270.71875 C 50.585938 272.4375 52.621094 273.84375 54.972656 274.472656 C 58.105469 275.410156 61.082031 276.972656 63.742188 278.695312 C 66.09375 280.414062 69.070312 280.414062 71.574219 281.820312 C 72.984375 282.601562 74.550781 283.230469 76.117188 283.386719 C 79.253906 283.855469 82.226562 285.417969 85.519531 285.417969 C 86.929688 286.199219 87.398438 288.078125 89.121094 288.234375 Z M 118.886719 322.324219 C 118.886719 322.011719 119.042969 321.542969 119.042969 321.230469 C 119.824219 321.386719 120.609375 321.699219 121.234375 322.167969 C 127.5 326.703125 134.707031 329.988281 140.347656 335.148438 C 144.421875 338.589844 148.804688 341.5625 153.507812 343.90625 C 155.074219 344.84375 156.640625 345.785156 158.050781 346.878906 C 158.363281 347.035156 158.363281 347.503906 158.519531 347.972656 C 158.675781 348.441406 157.578125 348.910156 157.109375 348.753906 C 150.84375 346.253906 144.890625 343.28125 138.9375 339.996094 C 138.46875 339.683594 137.996094 339.214844 137.839844 338.589844 C 137.683594 336.558594 136.429688 334.679688 134.550781 333.742188 C 130.164062 331.082031 126.089844 328.269531 122.019531 325.140625 C 121.234375 324.515625 120.453125 324.984375 119.667969 325.140625 L 119.667969 325.296875 C 120.140625 324.203125 119.824219 323.109375 118.886719 322.324219 Z M 72.359375 186.113281 C 73.613281 191.742188 73.140625 197.527344 71.261719 203 C 69.851562 208.164062 68.757812 213.324219 68.128906 218.484375 C 68.128906 219.734375 67.816406 220.832031 67.191406 221.925781 C 67.03125 222.082031 66.875 222.082031 66.71875 222.082031 C 66.5625 222.082031 66.25 221.925781 66.25 221.925781 C 65.9375 221.144531 65.78125 220.359375 65.78125 219.578125 C 66.09375 216.921875 66.40625 214.261719 66.71875 211.601562 C 66.875 210.351562 66.71875 209.101562 65.9375 208.164062 C 64.683594 206.285156 63.585938 204.253906 62.960938 202.21875 C 63.742188 200.8125 64.371094 202.0625 64.996094 202.375 C 65.308594 202.84375 65.625 203.472656 65.9375 203.941406 C 66.875 205.035156 67.347656 205.035156 67.972656 203.785156 C 69.226562 200.96875 69.851562 198.152344 70.167969 195.027344 C 70.324219 192.835938 70.636719 190.648438 70.949219 188.457031 C 71.261719 187.675781 71.417969 186.582031 72.359375 186.113281 Z M 51.054688 244.914062 C 50.429688 244.757812 49.800781 244.445312 49.332031 244.601562 C 48.546875 245.070312 48.234375 245.851562 48.546875 246.632812 C 49.644531 251.011719 51.210938 255.234375 55.597656 257.582031 C 56.695312 258.207031 57.632812 258.832031 56.695312 260.394531 C 56.539062 260.550781 57.632812 261.648438 58.261719 262.117188 C 59.984375 263.210938 61.707031 264.148438 63.429688 265.242188 C 63.742188 265.558594 63.898438 265.871094 63.742188 266.183594 C 63.585938 266.496094 63.117188 266.652344 62.804688 266.808594 C 62.332031 266.808594 62.019531 266.964844 61.550781 266.964844 C 54.03125 263.523438 49.644531 257.425781 46.667969 250.074219 C 46.199219 248.980469 46.042969 247.730469 45.886719 246.476562 C 45.570312 243.820312 46.980469 242.566406 49.957031 242.722656 C 50.429688 242.722656 50.742188 242.722656 51.210938 242.878906 Z M 71.417969 177.355469 L 72.203125 175.789062 C 72.671875 176.101562 73.457031 176.257812 73.613281 176.574219 C 76.117188 181.265625 78.78125 185.957031 79.878906 191.117188 C 80.347656 194.085938 80.660156 197.214844 80.503906 200.1875 C 80.347656 202.0625 80.191406 203.785156 79.722656 205.660156 L 78.46875 206.753906 C 77.683594 206.441406 77.214844 205.660156 77.371094 204.878906 C 77.527344 202.21875 77.683594 199.71875 77.683594 197.058594 C 77.84375 190.960938 75.492188 185.644531 72.984375 180.324219 C 72.828125 180.011719 72.359375 180.011719 72.046875 179.699219 L 72.203125 179.855469 C 72.359375 178.761719 72.671875 177.667969 71.261719 177.042969 Z M 64.996094 202.375 C 64.371094 202.0625 63.742188 200.8125 62.960938 202.21875 C 60.921875 199.09375 58.730469 195.808594 56.695312 192.679688 C 55.285156 190.492188 53.875 188.300781 52.308594 186.113281 C 49.488281 182.515625 48.546875 177.824219 49.957031 173.445312 C 50.269531 172.976562 50.585938 172.507812 51.054688 172.039062 L 50.898438 171.878906 C 50.585938 172.976562 50.269531 174.226562 51.835938 174.695312 L 51.835938 174.539062 C 51.210938 176.886719 51.523438 179.386719 52.777344 181.578125 C 56.066406 187.363281 59.042969 193.304688 63.429688 198.464844 L 65.152344 197.214844 C 65.78125 197.996094 66.09375 199.09375 65.625 200.03125 C 65.464844 200.8125 65.308594 201.59375 64.996094 202.375 Z M 85.519531 315.445312 C 84.578125 315.289062 83.796875 314.820312 83.167969 314.035156 C 82.386719 313.253906 81.289062 312.628906 80.191406 312.472656 C 81.601562 311.066406 83.480469 312.472656 84.734375 311.847656 C 88.339844 310.285156 91.472656 311.847656 94.605469 313.097656 C 99.304688 314.976562 103.847656 317.007812 108.546875 319.042969 C 109.957031 319.511719 111.054688 320.449219 111.835938 321.699219 L 110.113281 321.699219 C 104.472656 319.511719 98.675781 317.476562 93.039062 315.132812 C 91 314.351562 88.808594 313.878906 86.457031 313.878906 C 85.519531 313.722656 85.519531 314.664062 85.519531 315.445312 Z M 106.195312 257.738281 C 106.195312 259.144531 106.195312 260.550781 106.195312 262.117188 C 106.511719 261.960938 106.980469 261.804688 107.136719 261.492188 C 107.761719 260.238281 108.703125 260.238281 109.484375 261.335938 C 109.957031 261.804688 110.269531 263.210938 110.738281 261.648438 C 111.054688 259.925781 112.148438 258.363281 113.558594 257.113281 C 114.1875 256.644531 114.65625 256.015625 115.125 255.390625 C 114.8125 258.363281 114.027344 261.179688 112.460938 263.679688 C 111.523438 265.402344 110.113281 266.339844 107.917969 265.085938 C 107.292969 264.773438 106.511719 265.558594 106.824219 266.496094 C 107.761719 268.683594 108.703125 270.875 109.644531 273.21875 C 108.390625 274.785156 107.761719 272.90625 106.980469 272.59375 C 105.726562 268.996094 103.691406 265.558594 104.472656 261.492188 C 105.101562 260.082031 104.785156 258.519531 106.195312 257.738281 Z M 51.523438 158.429688 C 53.71875 159.839844 54.5 162.183594 55.597656 164.375 C 57.320312 167.972656 58.730469 171.878906 59.671875 175.789062 C 60.140625 177.355469 60.140625 179.074219 59.671875 180.636719 C 59.671875 180.953125 59.199219 181.265625 58.886719 181.265625 C 58.574219 181.109375 58.261719 180.953125 57.945312 180.480469 C 57.632812 179.699219 57.476562 178.917969 57.320312 178.136719 C 56.539062 173.289062 54.972656 168.753906 52.777344 164.375 C 52.464844 163.4375 51.679688 162.652344 50.898438 162.183594 C 51.210938 161.089844 50.898438 159.996094 49.957031 159.371094 Z M 78.625 206.753906 L 79.878906 205.660156 C 79.722656 208.164062 79.410156 210.507812 79.410156 212.855469 C 79.566406 215.199219 78.15625 217.390625 75.960938 218.171875 C 73.769531 218.796875 73.300781 220.359375 72.984375 222.238281 C 72.515625 225.050781 72.046875 227.867188 71.417969 230.683594 C 71.417969 230.996094 70.949219 231.152344 70.636719 231.464844 C 70.324219 231.777344 69.539062 230.839844 69.539062 230.371094 C 69.539062 229.902344 69.539062 229.585938 69.539062 229.117188 C 69.695312 227.085938 70.167969 225.050781 70.949219 223.175781 C 71.261719 222.550781 71.261719 221.613281 71.734375 220.832031 C 72.515625 219.265625 70.324219 217.546875 71.734375 216.453125 C 72.671875 215.667969 74.550781 216.136719 75.804688 215.667969 C 76.589844 215.355469 77.058594 214.730469 77.371094 213.949219 C 77.84375 211.601562 78.15625 209.101562 78.625 206.753906 Z M 65.464844 288.078125 C 65.78125 286.980469 66.5625 287.136719 67.347656 287.136719 C 69.382812 287.449219 71.261719 288.234375 72.984375 289.484375 C 76.589844 291.671875 80.191406 293.238281 84.421875 292.769531 C 84.734375 292.769531 85.203125 293.082031 85.519531 293.238281 C 85.203125 294.800781 84.578125 295.894531 82.699219 295.738281 C 80.035156 295.582031 77.527344 294.800781 75.179688 293.550781 C 73.140625 292.144531 70.949219 291.203125 68.441406 290.890625 C 67.816406 289.640625 67.347656 288.078125 65.464844 288.078125 Z M 51.523438 158.429688 L 50.269531 159.214844 C 50.269531 160.308594 50.113281 161.402344 51.210938 162.027344 C 51.835938 164.6875 52.464844 167.34375 53.246094 170.003906 C 53.5625 171.097656 53.5625 172.351562 53.246094 173.445312 C 53.089844 174.070312 52.464844 174.382812 51.835938 174.382812 L 51.835938 174.539062 C 51.835938 173.601562 51.835938 172.507812 50.898438 171.722656 L 51.054688 171.878906 C 50.429688 167.660156 49.488281 163.59375 47.921875 159.683594 C 47.609375 158.902344 48.234375 157.960938 49.019531 157.804688 C 49.957031 157.335938 50.898438 157.179688 51.523438 158.429688 Z M 108.390625 298.867188 C 107.136719 298.242188 107.136719 296.835938 106.824219 295.738281 C 106.195312 292.925781 104.941406 290.109375 105.101562 287.136719 L 106.667969 285.886719 C 107.605469 285.574219 107.605469 284.636719 107.917969 284.011719 C 108.078125 283.070312 108.703125 282.132812 109.484375 281.507812 L 110.425781 282.914062 C 110.425781 283.542969 110.425781 284.167969 110.113281 284.636719 C 107.917969 287.765625 107.449219 291.671875 108.546875 295.269531 C 108.703125 296.523438 108.703125 297.617188 108.390625 298.867188 Z M 73.457031 253.203125 L 70.167969 251.480469 C 68.914062 251.011719 69.382812 249.292969 68.285156 248.667969 L 67.972656 243.195312 C 67.816406 242.566406 68.285156 241.941406 68.757812 241.785156 C 69.539062 241.628906 69.851562 242.253906 70.167969 242.722656 C 71.890625 246.007812 72.359375 249.761719 73.457031 253.203125 Z M 72.359375 186.113281 C 71.261719 186.582031 71.261719 187.519531 70.949219 188.457031 C 70.636719 187.832031 70.324219 187.363281 70.324219 186.894531 C 70.167969 183.453125 69.539062 180.011719 68.441406 176.730469 C 68.285156 175.945312 68.128906 175.164062 68.128906 174.382812 C 68.128906 173.757812 68.757812 173.289062 69.226562 173.445312 C 69.226562 173.445312 69.226562 173.445312 69.382812 173.445312 C 69.695312 173.445312 70.167969 173.757812 70.324219 174.070312 C 70.792969 175.164062 70.167969 176.574219 71.417969 177.355469 L 71.417969 177.199219 C 71.417969 178.292969 71.261719 179.386719 72.359375 180.011719 L 72.203125 179.855469 C 71.417969 181.890625 72.984375 183.921875 72.359375 186.113281 Z M 34.292969 234.28125 C 33.664062 235.375 32.414062 236 31.160156 235.6875 C 27.554688 235.0625 24.109375 233.964844 20.664062 232.558594 C 19.097656 231.777344 17.375 230.996094 15.652344 230.214844 C 15.652344 229.902344 15.808594 229.585938 15.808594 229.273438 L 18.3125 229.429688 L 21.761719 230.371094 C 22.855469 232.089844 24.738281 231.777344 26.460938 231.933594 C 28.652344 234.121094 31.628906 233.652344 34.292969 234.28125 Z M 157.578125 344.21875 C 158.207031 342.96875 158.832031 341.71875 159.457031 340.464844 C 159.929688 339.527344 161.023438 339.058594 161.964844 339.371094 C 163.0625 339.527344 163.84375 340.152344 164.160156 341.25 C 164.472656 342.65625 164.628906 344.0625 164.472656 345.316406 C 164.472656 345.941406 163.53125 346.253906 163.21875 345.785156 C 161.808594 343.90625 160.085938 344.53125 158.363281 345 C 158.207031 345 157.890625 344.53125 157.578125 344.21875 Z M 161.652344 341.40625 C 161.496094 341.71875 161.183594 342.03125 161.023438 342.34375 C 161.023438 342.5 161.183594 342.65625 161.339844 342.8125 C 161.496094 342.65625 161.808594 342.65625 161.808594 342.5 C 161.964844 342.1875 161.808594 341.71875 161.652344 341.40625 Z M 107.605469 332.335938 C 108.078125 332.335938 108.390625 332.335938 108.859375 332.335938 C 110.738281 332.804688 112.304688 332.804688 113.558594 330.925781 C 114.65625 329.675781 116.378906 329.207031 117.945312 329.988281 L 114.65625 332.804688 C 116.222656 333.742188 118.101562 333.429688 119.824219 333.742188 C 119.355469 334.367188 118.414062 334.679688 117.632812 334.523438 L 112.148438 334.054688 C 111.367188 333.898438 110.425781 334.054688 109.957031 334.835938 C 108.703125 334.523438 108.078125 333.585938 107.605469 332.335938 Z M 109.957031 334.835938 C 110.425781 334.210938 111.367188 333.898438 112.148438 334.054688 L 117.632812 334.523438 C 118.414062 334.679688 119.355469 334.367188 119.824219 333.742188 L 123.113281 332.179688 C 123.113281 332.179688 123.429688 332.335938 123.429688 332.492188 C 123.585938 332.648438 123.585938 332.804688 123.585938 333.117188 C 123.429688 333.429688 123.273438 333.898438 122.957031 334.054688 C 120.453125 336.558594 116.691406 337.183594 113.402344 335.773438 C 112.304688 335.460938 111.210938 335.304688 109.957031 334.835938 Z M 102.90625 248.355469 C 104.628906 246.476562 106.195312 246.320312 107.917969 247.574219 C 109.957031 248.824219 111.679688 250.542969 113.089844 252.578125 C 113.246094 252.890625 113.246094 253.359375 113.089844 253.671875 C 112.777344 253.984375 112.460938 253.984375 112.148438 253.828125 C 111.210938 253.359375 110.425781 252.734375 109.800781 251.949219 C 108.234375 249.917969 105.726562 248.667969 102.90625 248.355469 Z M 34.292969 234.28125 C 31.628906 233.652344 28.652344 234.121094 26.617188 231.777344 L 24.738281 229.273438 C 26.460938 229.273438 28.183594 230.058594 29.4375 231.152344 C 31.160156 232.871094 31.785156 233.027344 33.980469 231.933594 L 35.390625 230.839844 C 37.425781 232.246094 37.425781 232.246094 36.484375 234.28125 Z M 130.632812 290.578125 C 130.949219 289.953125 131.574219 289.484375 132.042969 289.796875 C 135.648438 291.046875 138.625 293.707031 140.191406 297.148438 C 140.191406 297.304688 140.191406 297.617188 140.035156 297.617188 C 139.71875 297.773438 139.09375 297.929688 138.9375 297.773438 C 136.902344 294.644531 133.765625 292.769531 130.632812 290.890625 Z M 66.5625 248.667969 L 65.152344 249.761719 C 64.058594 248.824219 64.527344 247.574219 64.058594 246.476562 C 62.960938 243.507812 61.863281 240.691406 60.609375 237.71875 L 62.019531 236.46875 L 63.273438 236.78125 L 63.117188 236.625 C 63.117188 238.5 63.585938 240.535156 64.527344 242.253906 C 65.308594 244.601562 65.9375 246.632812 66.5625 248.667969 Z M 106.667969 275.097656 C 107.449219 275.410156 107.761719 276.191406 107.605469 276.972656 C 107.292969 279.945312 106.980469 282.914062 106.667969 285.886719 L 105.101562 287.136719 C 105.101562 286.042969 105.101562 284.792969 105.101562 283.699219 C 104.941406 280.726562 105.570312 277.753906 106.667969 275.097656 Z M 106.195312 257.738281 C 104.628906 258.519531 105.101562 260.082031 104.628906 261.335938 C 104.003906 260.238281 103.847656 258.988281 104.003906 257.738281 C 104.316406 255.390625 103.847656 252.890625 102.75 250.699219 C 105.414062 252.109375 105.414062 252.109375 106.195312 257.738281 Z M 63.273438 192.210938 C 61.082031 190.960938 60.765625 188.769531 60.453125 186.582031 C 60.453125 186.425781 61.082031 186.113281 61.394531 186.113281 C 62.804688 186.582031 63.585938 187.832031 63.585938 189.238281 C 63.585938 190.335938 63.429688 191.273438 63.273438 192.210938 Z M 65.464844 288.078125 C 67.347656 288.078125 67.816406 289.640625 68.597656 290.890625 C 67.503906 291.203125 66.40625 291.515625 65.152344 291.671875 C 64.058594 291.988281 62.804688 291.359375 62.332031 290.265625 C 64.371094 290.265625 64.371094 290.265625 63.742188 288.234375 L 65.464844 288.234375 Z M 110.113281 278.066406 C 109.800781 276.503906 111.210938 275.566406 111.523438 274.316406 C 111.835938 273.84375 112.460938 273.84375 112.460938 274.15625 C 112.621094 276.503906 112.933594 278.851562 110.894531 280.570312 C 110.894531 279.789062 111.210938 278.695312 110.113281 278.066406 Z M 59.671875 218.953125 L 60.921875 217.859375 C 62.488281 219.890625 61.394531 222.394531 62.175781 224.425781 L 60.921875 224.269531 C 59.671875 222.863281 60.296875 220.832031 59.671875 218.953125 Z M 63.742188 288.078125 C 64.371094 290.265625 64.371094 290.265625 62.332031 290.109375 C 61.550781 288.703125 60.140625 288.078125 58.886719 287.136719 C 59.042969 286.511719 59.671875 286.042969 60.296875 286.199219 C 60.453125 286.199219 60.453125 286.199219 60.609375 286.355469 C 61.863281 286.980469 62.804688 287.609375 63.742188 288.078125 Z M 137.839844 328.894531 L 139.40625 327.644531 C 140.035156 328.582031 140.503906 329.675781 140.972656 330.769531 C 141.285156 331.238281 141.128906 331.863281 140.660156 332.179688 C 140.660156 332.179688 140.660156 332.179688 140.503906 332.179688 C 140.347656 332.335938 139.71875 332.023438 139.5625 331.707031 C 139.09375 330.925781 138.46875 329.832031 137.839844 328.894531 Z M 81.289062 245.070312 C 82.226562 246.164062 82.542969 247.730469 82.226562 249.136719 C 82.226562 249.449219 81.601562 249.605469 81.289062 249.761719 C 80.976562 249.917969 80.503906 249.761719 80.503906 249.136719 C 80.191406 247.730469 80.503906 246.320312 81.289062 245.070312 Z M 65.152344 197.214844 L 63.429688 198.464844 C 63.898438 196.433594 63.898438 194.246094 63.273438 192.210938 L 63.117188 192.367188 C 64.839844 193.304688 65.78125 195.339844 65.152344 197.214844 Z M 34.449219 212.074219 L 39.460938 212.855469 L 40.246094 215.199219 C 38.050781 214.730469 36.015625 213.636719 34.449219 212.074219 Z M 135.492188 309.816406 C 134.550781 309.816406 133.453125 311.222656 132.984375 309.34375 L 133.453125 307.15625 L 135.960938 307.78125 Z M 66.875 237.71875 C 66.875 237.40625 67.03125 236.9375 67.191406 236.625 C 67.347656 236.46875 67.816406 236.15625 67.816406 236.3125 C 68.285156 237.40625 68.128906 238.5 67.347656 239.441406 C 67.191406 239.441406 66.71875 239.128906 66.71875 238.972656 C 66.875 238.5 66.875 238.03125 66.875 237.71875 Z M 110.113281 278.066406 C 111.210938 278.695312 110.894531 279.789062 110.894531 280.726562 L 110.269531 282.914062 L 109.328125 281.507812 Z M 15.964844 229.117188 C 15.964844 229.429688 15.808594 229.746094 15.808594 230.058594 C 14.867188 229.585938 14.085938 229.273438 13.144531 228.804688 C 12.988281 228.648438 12.832031 228.335938 12.832031 228.335938 C 12.832031 228.335938 13.300781 227.867188 13.613281 227.867188 C 14.398438 227.867188 15.179688 228.023438 15.964844 228.179688 C 16.121094 228.492188 16.121094 228.804688 15.964844 229.117188 Z M 117.164062 327.328125 L 115.597656 327.015625 C 116.535156 325.609375 118.101562 324.984375 119.824219 325.296875 L 119.824219 325.140625 C 119.511719 326.390625 118.414062 327.171875 117.164062 327.328125 Z M 111.054688 305.75 C 110.113281 304.652344 109.957031 303.089844 110.425781 301.683594 C 111.835938 301.996094 111.992188 303.402344 112.304688 304.496094 Z M 142.539062 305.277344 L 143.011719 304.339844 C 143.167969 304.652344 143.167969 305.121094 143.167969 305.4375 C 143.011719 305.75 142.851562 306.0625 142.695312 306.375 Z M 110.269531 321.542969 L 111.992188 321.542969 C 112.148438 321.542969 112.460938 321.542969 112.621094 321.542969 C 112.933594 321.699219 113.089844 322.011719 113.402344 322.324219 C 113.089844 322.480469 112.933594 322.792969 112.621094 322.949219 C 111.523438 322.949219 110.582031 322.324219 110.269531 321.542969 Z M 109.171875 301.371094 C 108.859375 301.371094 108.546875 301.214844 108.234375 301.058594 L 108.390625 298.710938 L 108.234375 298.710938 C 109.644531 299.335938 109.328125 300.429688 109.171875 301.371094 Z M 34.449219 211.914062 C 33.664062 211.757812 32.882812 211.757812 32.257812 211.445312 C 32.097656 211.445312 31.941406 210.976562 31.785156 210.820312 C 32.097656 210.664062 32.414062 210.664062 32.882812 210.664062 C 33.507812 210.664062 34.136719 211.289062 34.449219 211.914062 Z M 46.355469 186.425781 C 46.042969 186.425781 45.570312 186.269531 45.257812 186.113281 C 44.476562 185.644531 44.003906 185.171875 44.789062 184.390625 C 45.257812 184.078125 45.726562 184.859375 46.042969 185.332031 C 46.199219 185.488281 46.199219 185.644531 46.199219 185.800781 C 46.355469 186.113281 46.355469 186.269531 46.355469 186.425781 Z M 54.8125 244.601562 L 52.152344 245.226562 C 52.308594 244.601562 52.464844 244.132812 52.621094 243.507812 C 52.777344 242.878906 53.089844 242.410156 53.71875 242.253906 C 54.34375 242.097656 54.65625 242.722656 54.8125 243.351562 C 54.8125 243.820312 54.8125 244.132812 54.8125 244.601562 Z M 54.03125 277.910156 C 53.71875 277.597656 53.246094 277.441406 53.089844 277.128906 C 52.933594 276.816406 52.464844 275.722656 52.621094 275.722656 C 53.5625 275.097656 54.03125 275.722656 54.34375 276.660156 C 54.1875 276.972656 54.03125 277.441406 54.03125 277.910156 Z M 111.523438 311.691406 C 110.113281 310.753906 110.738281 309.972656 111.835938 309.1875 C 113.089844 310.597656 113.089844 310.597656 111.523438 311.691406 Z M 102.75 304.339844 C 102.4375 304.339844 101.96875 304.183594 101.652344 304.027344 C 101.496094 303.871094 101.339844 303.558594 101.183594 303.402344 C 101.496094 303.402344 101.96875 303.246094 102.125 303.402344 C 102.28125 303.558594 102.4375 304.027344 102.75 304.339844 Z M 51.054688 162.183594 C 49.957031 161.558594 49.957031 160.464844 50.113281 159.371094 C 51.054688 159.996094 51.367188 161.089844 51.054688 162.183594 Z M 33.980469 231.933594 C 31.785156 233.027344 31.160156 232.871094 29.4375 231.152344 Z M 161.652344 341.40625 C 161.808594 341.71875 161.808594 342.1875 161.808594 342.5 C 161.808594 342.65625 161.496094 342.65625 161.339844 342.8125 C 161.183594 342.65625 161.023438 342.5 161.023438 342.34375 C 161.339844 342.03125 161.496094 341.71875 161.652344 341.40625 Z M 195.175781 33.476562 C 147.082031 33.476562 101.496094 55.683594 72.046875 93.6875 L 73.613281 94.78125 C 98.519531 62.566406 135.492188 41.609375 176.0625 36.605469 C 260.1875 25.816406 337.105469 85.085938 347.914062 169.066406 C 357.3125 242.253906 313.292969 311.691406 242.957031 334.367188 L 243.425781 336.242188 C 325.042969 309.5 369.53125 221.769531 342.898438 140.289062 C 321.910156 76.640625 262.378906 33.632812 195.175781 33.476562 Z M 195.175781 33.476562 " fill-opacity="1" fill-rule="nonzero"/></g><g fill="rgb(54.119873%, 52.549744%, 50.588989%)" fill-opacity="1"><g transform="translate(132.817, 216.099161)"><g><path d="M 30.171875 1.25 C 25.066406 1.25 20.492188 0.0234375 16.453125 -2.421875 C 12.410156 -4.867188 9.253906 -8.203125 6.984375 -12.421875 C 4.722656 -16.640625 3.59375 -21.332031 3.59375 -26.5 C 3.59375 -31.601562 4.617188 -36.394531 6.671875 -40.875 C 8.734375 -45.351562 11.8125 -48.984375 15.90625 -51.765625 C 20 -54.554688 24.9375 -55.953125 30.71875 -55.953125 C 36.445312 -55.953125 41.707031 -54.363281 46.5 -51.1875 L 46.109375 -55.40625 L 50.328125 -55.40625 L 50.328125 -37.28125 L 47.515625 -37.28125 C 46.992188 -42.125 45.285156 -45.910156 42.390625 -48.640625 C 39.503906 -51.378906 35.796875 -52.75 31.265625 -52.75 C 27.566406 -52.75 24.191406 -51.71875 21.140625 -49.65625 C 18.085938 -47.601562 15.675781 -44.675781 13.90625 -40.875 C 12.132812 -37.070312 11.25 -32.671875 11.25 -27.671875 C 11.25 -22.878906 12.1875 -18.59375 14.0625 -14.8125 C 15.9375 -11.03125 18.460938 -8.082031 21.640625 -5.96875 C 24.828125 -3.863281 28.347656 -2.8125 32.203125 -2.8125 C 35.691406 -2.8125 39.050781 -3.59375 42.28125 -5.15625 C 45.507812 -6.71875 48.164062 -8.929688 50.25 -11.796875 L 52.28125 -10.15625 C 49.257812 -5.9375 45.796875 -2.976562 41.890625 -1.28125 C 37.984375 0.40625 34.078125 1.25 30.171875 1.25 Z M 30.171875 1.25 "/></g></g></g><g fill="rgb(54.119873%, 52.549744%, 50.588989%)" fill-opacity="1"><g transform="translate(194.483588, 216.099161)"><g><path d="M 3.359375 -3.59375 L 4.296875 -4.921875 C 13.410156 -17.484375 22.347656 -30.769531 31.109375 -44.78125 C 33.085938 -47.851562 34.753906 -50.195312 36.109375 -51.8125 L 16.171875 -51.5 C 13.046875 -51.394531 10.726562 -50.300781 9.21875 -48.21875 C 7.707031 -46.132812 6.953125 -42.90625 6.953125 -38.53125 L 4.296875 -38.53125 L 4.765625 -54.703125 L 43.53125 -54.703125 L 43.53125 -51.96875 L 15.46875 -9.375 C 13.539062 -6.507812 11.769531 -4.347656 10.15625 -2.890625 L 29.15625 -3.203125 C 32.800781 -3.253906 35.726562 -4.347656 37.9375 -6.484375 C 40.15625 -8.617188 41.265625 -11.796875 41.265625 -16.015625 L 43.921875 -16.015625 L 43.453125 0 L 3.359375 0 Z M 3.359375 -3.59375 "/></g></g></g><g fill="rgb(54.119873%, 52.549744%, 50.588989%)" fill-opacity="1"><g transform="translate(133.394404, 250.845567)"><g><path d="M 9.328125 -4.671875 C 9.460938 -4.753906 9.597656 -4.816406 9.734375 -4.859375 C 9.867188 -4.910156 9.957031 -4.910156 10 -4.859375 C 10.050781 -4.804688 10 -4.691406 9.84375 -4.515625 C 9.351562 -3.953125 8.769531 -3.441406 8.09375 -2.984375 C 7.425781 -2.523438 6.738281 -2.132812 6.03125 -1.8125 C 5.46875 -1.5625 4.878906 -1.363281 4.265625 -1.21875 C 3.648438 -1.070312 3.039062 -1.039062 2.4375 -1.125 C 1.832031 -1.207031 1.285156 -1.472656 0.796875 -1.921875 C 0.0351562 -2.617188 -0.273438 -3.472656 -0.140625 -4.484375 C -0.0351562 -5.273438 0.269531 -5.953125 0.78125 -6.515625 C 1.300781 -7.078125 1.953125 -7.457031 2.734375 -7.65625 C 3.378906 -7.789062 4.03125 -7.804688 4.6875 -7.703125 C 4.976562 -7.660156 5.25 -7.5625 5.5 -7.40625 C 5.71875 -7.226562 5.835938 -7.019531 5.859375 -6.78125 C 5.890625 -6.550781 5.800781 -6.332031 5.59375 -6.125 C 5.1875 -5.757812 4.710938 -5.539062 4.171875 -5.46875 C 3.566406 -5.363281 2.957031 -5.296875 2.34375 -5.265625 C 2.039062 -5.265625 1.828125 -5.203125 1.703125 -5.078125 C 1.585938 -4.960938 1.523438 -4.753906 1.515625 -4.453125 C 1.410156 -3.648438 1.664062 -2.992188 2.28125 -2.484375 C 2.664062 -2.179688 3.128906 -2.050781 3.671875 -2.09375 C 4.210938 -2.144531 4.789062 -2.289062 5.40625 -2.53125 C 6.019531 -2.78125 6.617188 -3.070312 7.203125 -3.40625 C 7.796875 -3.738281 8.328125 -4.054688 8.796875 -4.359375 C 8.992188 -4.484375 9.171875 -4.585938 9.328125 -4.671875 Z M 2.609375 -6.390625 C 2.609375 -6.378906 2.597656 -6.375 2.578125 -6.375 C 2.546875 -6.351562 2.507812 -6.320312 2.46875 -6.28125 C 2.425781 -6.25 2.382812 -6.210938 2.34375 -6.171875 C 2.3125 -6.140625 2.296875 -6.117188 2.296875 -6.109375 C 2.316406 -6.054688 2.4375 -6.039062 2.65625 -6.0625 C 2.875 -6.09375 3.113281 -6.132812 3.375 -6.1875 C 3.632812 -6.238281 3.851562 -6.3125 4.03125 -6.40625 C 4.21875 -6.5 4.273438 -6.613281 4.203125 -6.75 C 4.171875 -6.78125 4.128906 -6.8125 4.078125 -6.84375 C 4.023438 -6.875 3.972656 -6.894531 3.921875 -6.90625 C 3.660156 -6.90625 3.421875 -6.851562 3.203125 -6.75 C 2.992188 -6.65625 2.796875 -6.535156 2.609375 -6.390625 Z M 2.609375 -6.390625 "/></g></g></g><g fill="rgb(54.119873%, 52.549744%, 50.588989%)" fill-opacity="1"><g transform="translate(149.27287, 250.845567)"><g><path d="M 15.171875 -4.71875 C 15.234375 -4.832031 15.320312 -4.890625 15.4375 -4.890625 C 15.5625 -4.898438 15.664062 -4.828125 15.75 -4.671875 C 15.78125 -4.628906 15.75 -4.519531 15.65625 -4.34375 C 15.5625 -4.164062 15.4375 -3.96875 15.28125 -3.75 C 15.125 -3.53125 14.972656 -3.328125 14.828125 -3.140625 C 14.691406 -2.953125 14.597656 -2.832031 14.546875 -2.78125 C 13.898438 -2.070312 13.253906 -1.550781 12.609375 -1.21875 C 11.960938 -0.882812 11.265625 -0.8125 10.515625 -1 C 9.765625 -1.1875 8.921875 -1.722656 7.984375 -2.609375 C 7.835938 -2.765625 7.695312 -2.921875 7.5625 -3.078125 C 7.519531 -3.117188 7.484375 -3.160156 7.453125 -3.203125 C 7.296875 -3.378906 7.125 -3.398438 6.9375 -3.265625 C 6.738281 -3.128906 6.539062 -2.988281 6.34375 -2.84375 C 6.164062 -2.71875 5.988281 -2.597656 5.8125 -2.484375 C 5.21875 -2.066406 4.585938 -1.71875 3.921875 -1.4375 C 3.210938 -1.125 2.46875 -1.003906 1.6875 -1.078125 C 0.46875 -1.210938 -0.164062 -1.882812 -0.21875 -3.09375 C -0.226562 -3.945312 -0.046875 -4.707031 0.328125 -5.375 C 0.710938 -6.050781 1.238281 -6.550781 1.90625 -6.875 C 2.582031 -7.195312 3.359375 -7.257812 4.234375 -7.0625 C 4.328125 -7.039062 4.457031 -7.007812 4.625 -6.96875 C 4.71875 -6.9375 4.835938 -6.910156 4.984375 -6.890625 C 4.898438 -7.085938 4.820312 -7.265625 4.75 -7.421875 C 4.625 -7.679688 4.507812 -7.914062 4.40625 -8.125 C 3.820312 -9.332031 3.34375 -10.710938 2.96875 -12.265625 C 2.601562 -13.816406 2.425781 -15.40625 2.4375 -17.03125 C 2.445312 -18.664062 2.71875 -20.1875 3.25 -21.59375 C 3.789062 -23 4.6875 -24.15625 5.9375 -25.0625 C 6.726562 -25.601562 7.546875 -25.894531 8.390625 -25.9375 C 9.242188 -25.976562 10.046875 -25.789062 10.796875 -25.375 C 11.546875 -24.96875 12.15625 -24.351562 12.625 -23.53125 C 13.226562 -22.394531 13.601562 -21.195312 13.75 -19.9375 C 14.007812 -17.90625 13.96875 -16.007812 13.625 -14.25 C 13.28125 -12.488281 12.675781 -10.820312 11.8125 -9.25 C 10.945312 -7.6875 9.847656 -6.164062 8.515625 -4.6875 C 8.378906 -4.550781 8.304688 -4.441406 8.296875 -4.359375 C 8.296875 -4.273438 8.363281 -4.15625 8.5 -4 C 8.769531 -3.644531 9.0625 -3.296875 9.375 -2.953125 C 9.695312 -2.617188 10.054688 -2.34375 10.453125 -2.125 C 11.003906 -1.882812 11.59375 -1.878906 12.21875 -2.109375 C 12.851562 -2.335938 13.441406 -2.695312 13.984375 -3.1875 C 14.523438 -3.675781 14.921875 -4.1875 15.171875 -4.71875 Z M 5.6875 -3.875 C 5.851562 -4.007812 5.867188 -4.171875 5.734375 -4.359375 C 5.640625 -4.460938 5.550781 -4.566406 5.46875 -4.671875 C 5.238281 -4.953125 4.972656 -5.242188 4.671875 -5.546875 C 4.378906 -5.847656 4.070312 -6.078125 3.75 -6.234375 C 3.4375 -6.390625 3.113281 -6.398438 2.78125 -6.265625 C 2.332031 -6.054688 1.960938 -5.679688 1.671875 -5.140625 C 1.378906 -4.597656 1.207031 -4.039062 1.15625 -3.46875 C 1.101562 -2.90625 1.210938 -2.472656 1.484375 -2.171875 C 1.753906 -1.878906 2.21875 -1.851562 2.875 -2.09375 C 3.894531 -2.550781 4.832031 -3.144531 5.6875 -3.875 Z M 7.84375 -5.96875 C 9.195312 -7.570312 10.210938 -9.148438 10.890625 -10.703125 C 11.566406 -12.265625 12.019531 -14.085938 12.25 -16.171875 C 12.320312 -16.671875 12.351562 -17.332031 12.34375 -18.15625 C 12.34375 -18.988281 12.269531 -19.851562 12.125 -20.75 C 11.988281 -21.65625 11.734375 -22.476562 11.359375 -23.21875 C 10.992188 -23.957031 10.476562 -24.488281 9.8125 -24.8125 C 9.15625 -25.132812 8.3125 -25.128906 7.28125 -24.796875 C 6.144531 -24.140625 5.300781 -23.257812 4.75 -22.15625 C 4.207031 -21.0625 3.894531 -19.835938 3.8125 -18.484375 C 3.738281 -17.140625 3.828125 -15.765625 4.078125 -14.359375 C 4.335938 -12.953125 4.691406 -11.617188 5.140625 -10.359375 C 5.597656 -9.097656 6.085938 -8 6.609375 -7.0625 C 6.671875 -6.945312 6.734375 -6.832031 6.796875 -6.71875 C 6.941406 -6.332031 7.164062 -5.984375 7.46875 -5.671875 C 7.507812 -5.710938 7.554688 -5.75 7.609375 -5.78125 C 7.691406 -5.832031 7.769531 -5.894531 7.84375 -5.96875 Z M 7.84375 -5.96875 "/></g></g></g><g fill="rgb(54.119873%, 52.549744%, 50.588989%)" fill-opacity="1"><g transform="translate(170.873488, 250.845567)"><g><path d="M 5.015625 -3.921875 C 4.816406 -3.515625 4.476562 -3.054688 4 -2.546875 C 3.519531 -2.046875 2.972656 -1.726562 2.359375 -1.59375 C 1.753906 -1.457031 1.175781 -1.664062 0.625 -2.21875 C 0.40625 -2.46875 0.242188 -2.75 0.140625 -3.0625 C 0.046875 -3.382812 0.0078125 -3.703125 0.03125 -4.015625 C 0.03125 -4.097656 0.03125 -4.203125 0.03125 -4.328125 C 0.03125 -4.660156 0.046875 -5.039062 0.078125 -5.46875 C 0.109375 -5.90625 0.171875 -6.296875 0.265625 -6.640625 C 0.367188 -6.992188 0.53125 -7.207031 0.75 -7.28125 C 1.351562 -7.425781 1.679688 -7.210938 1.734375 -6.640625 C 1.734375 -6.453125 1.726562 -6.265625 1.71875 -6.078125 C 1.707031 -5.984375 1.703125 -5.890625 1.703125 -5.796875 C 1.691406 -5.523438 1.675781 -5.253906 1.65625 -4.984375 C 1.65625 -4.773438 1.648438 -4.566406 1.640625 -4.359375 C 1.617188 -3.421875 1.820312 -2.863281 2.25 -2.6875 C 2.6875 -2.507812 3.179688 -2.695312 3.734375 -3.25 C 4.296875 -3.800781 4.660156 -4.257812 4.828125 -4.625 C 5.003906 -5 5.128906 -5.078125 5.203125 -4.859375 C 5.285156 -4.648438 5.222656 -4.335938 5.015625 -3.921875 Z M 1.609375 -9.265625 C 1.523438 -9.191406 1.421875 -9.144531 1.296875 -9.125 C 1.179688 -9.113281 1.082031 -9.125 1 -9.15625 C 0.925781 -9.21875 0.878906 -9.296875 0.859375 -9.390625 C 0.835938 -9.484375 0.828125 -9.59375 0.828125 -9.71875 C 0.828125 -9.75 0.832031 -9.773438 0.84375 -9.796875 C 0.863281 -9.910156 0.894531 -10.023438 0.9375 -10.140625 C 1.0625 -10.453125 1.328125 -10.597656 1.734375 -10.578125 C 1.878906 -10.554688 1.992188 -10.492188 2.078125 -10.390625 C 2.160156 -10.296875 2.175781 -10.1875 2.125 -10.0625 C 2.03125 -9.75 1.859375 -9.484375 1.609375 -9.265625 Z M 1.609375 -9.265625 "/></g></g></g><g fill="rgb(54.119873%, 52.549744%, 50.588989%)" fill-opacity="1"><g transform="translate(182.141375, 250.845567)"><g><path d="M 7.09375 -4.65625 C 7.457031 -5 7.613281 -5.082031 7.5625 -4.90625 C 7.507812 -4.738281 7.3125 -4.429688 6.96875 -3.984375 C 6.632812 -3.535156 6.210938 -3.046875 5.703125 -2.515625 C 5.191406 -1.992188 4.648438 -1.539062 4.078125 -1.15625 C 3.515625 -0.78125 2.976562 -0.578125 2.46875 -0.546875 C 1.84375 -0.546875 1.335938 -0.726562 0.953125 -1.09375 C 0.578125 -1.46875 0.304688 -1.957031 0.140625 -2.5625 C -0.015625 -3.175781 -0.078125 -3.835938 -0.046875 -4.546875 C -0.015625 -5.335938 0.0078125 -6.128906 0.03125 -6.921875 C 0.0507812 -7.328125 0.0664062 -7.71875 0.078125 -8.09375 C 0.109375 -8.738281 0.128906 -9.378906 0.140625 -10.015625 C 0.160156 -10.210938 0.128906 -10.378906 0.046875 -10.515625 C -0.0234375 -10.648438 -0.164062 -10.722656 -0.375 -10.734375 C -0.59375 -10.742188 -0.875 -10.75 -1.21875 -10.75 C -1.507812 -10.75 -1.765625 -10.75 -1.984375 -10.75 C -2.273438 -10.789062 -2.472656 -10.875 -2.578125 -11 C -2.679688 -11.125 -2.601562 -11.25 -2.34375 -11.375 C -2.15625 -11.445312 -1.9375 -11.484375 -1.6875 -11.484375 C -1.4375 -11.492188 -1.1875 -11.492188 -0.9375 -11.484375 C -0.78125 -11.472656 -0.644531 -11.46875 -0.53125 -11.46875 C -0.15625 -11.46875 0.0703125 -11.523438 0.15625 -11.640625 C 0.25 -11.765625 0.300781 -12.003906 0.3125 -12.359375 C 0.34375 -12.734375 0.363281 -13.109375 0.375 -13.484375 C 0.382812 -13.679688 0.398438 -13.878906 0.421875 -14.078125 C 0.421875 -14.378906 0.5 -14.648438 0.65625 -14.890625 C 0.820312 -15.117188 1.035156 -15.207031 1.296875 -15.15625 C 1.523438 -15.09375 1.648438 -14.945312 1.671875 -14.71875 C 1.691406 -14.34375 1.703125 -13.96875 1.703125 -13.59375 C 1.710938 -13.375 1.710938 -13.160156 1.703125 -12.953125 C 1.703125 -12.722656 1.707031 -12.488281 1.71875 -12.25 C 1.707031 -11.914062 1.742188 -11.703125 1.828125 -11.609375 C 1.921875 -11.523438 2.144531 -11.484375 2.5 -11.484375 C 3.082031 -11.484375 3.660156 -11.484375 4.234375 -11.484375 C 4.484375 -11.484375 5.25 -11.5 6.53125 -11.53125 C 7.8125 -11.570312 8.5 -11.46875 8.59375 -11.21875 C 8.695312 -10.976562 7.890625 -10.84375 6.171875 -10.8125 C 5.128906 -10.75 4.328125 -10.71875 3.765625 -10.71875 C 3.378906 -10.726562 3.035156 -10.734375 2.734375 -10.734375 C 2.222656 -10.734375 1.90625 -10.644531 1.78125 -10.46875 C 1.664062 -10.289062 1.617188 -9.9375 1.640625 -9.40625 C 1.617188 -8.945312 1.59375 -8.390625 1.5625 -7.734375 C 1.476562 -6.398438 1.4375 -5.039062 1.4375 -3.65625 C 1.46875 -2.695312 1.640625 -2.078125 1.953125 -1.796875 C 2.265625 -1.515625 2.664062 -1.460938 3.15625 -1.640625 C 3.65625 -1.816406 4.191406 -2.128906 4.765625 -2.578125 C 5.347656 -3.035156 5.921875 -3.523438 6.484375 -4.046875 C 6.609375 -4.210938 6.757812 -4.367188 6.9375 -4.515625 C 6.988281 -4.554688 7.039062 -4.601562 7.09375 -4.65625 Z M 7.09375 -4.65625 "/></g></g></g><g fill="rgb(54.119873%, 52.549744%, 50.588989%)" fill-opacity="1"><g transform="translate(195.632401, 250.845567)"><g><path d="M 7.4375 -5.296875 C 7.53125 -5.390625 7.578125 -5.269531 7.578125 -4.9375 C 7.585938 -4.601562 7.285156 -4.140625 6.671875 -3.546875 C 6.066406 -2.953125 5.4375 -2.671875 4.78125 -2.703125 C 4.644531 -2.710938 4.523438 -2.695312 4.421875 -2.65625 C 4.328125 -2.625 4.242188 -2.546875 4.171875 -2.421875 C 4.097656 -2.304688 4.015625 -2.195312 3.921875 -2.09375 C 3.921875 -2.09375 3.914062 -2.085938 3.90625 -2.078125 C 3.5 -1.648438 3.023438 -1.367188 2.484375 -1.234375 C 1.953125 -1.097656 1.441406 -1.140625 0.953125 -1.359375 C 0.472656 -1.578125 0.125 -1.992188 -0.09375 -2.609375 C -0.238281 -3.160156 -0.25 -3.710938 -0.125 -4.265625 C -0.0195312 -4.742188 0.15625 -5.195312 0.40625 -5.625 C 0.695312 -6.195312 1.078125 -6.597656 1.546875 -6.828125 C 2.023438 -7.066406 2.566406 -7.195312 3.171875 -7.21875 C 4.066406 -7.269531 4.628906 -6.851562 4.859375 -5.96875 C 4.992188 -5.457031 5.03125 -4.941406 4.96875 -4.421875 C 4.945312 -4.304688 4.921875 -4.179688 4.890625 -4.046875 C 4.867188 -3.960938 4.847656 -3.878906 4.828125 -3.796875 C 4.796875 -3.515625 4.914062 -3.390625 5.1875 -3.421875 C 5.9375 -3.546875 6.6875 -4.171875 7.4375 -5.296875 Z M 2.171875 -2 C 2.628906 -2.207031 2.945312 -2.566406 3.125 -3.078125 C 2.363281 -3.554688 1.851562 -4.253906 1.59375 -5.171875 C 1.351562 -4.742188 1.207031 -4.242188 1.15625 -3.671875 C 1.101562 -3.109375 1.160156 -2.640625 1.328125 -2.265625 C 1.492188 -1.898438 1.773438 -1.8125 2.171875 -2 Z M 3.46875 -4.078125 C 3.59375 -4.265625 3.664062 -4.488281 3.6875 -4.75 C 3.707031 -5.007812 3.691406 -5.269531 3.640625 -5.53125 C 3.597656 -5.800781 3.53125 -6.007812 3.4375 -6.15625 C 3.351562 -6.300781 3.265625 -6.34375 3.171875 -6.28125 C 2.992188 -6.132812 2.894531 -5.914062 2.875 -5.625 C 2.863281 -5.332031 2.910156 -5.039062 3.015625 -4.75 C 3.117188 -4.457031 3.269531 -4.234375 3.46875 -4.078125 Z M 3.46875 -4.078125 "/></g></g></g><g fill="rgb(54.119873%, 52.549744%, 50.588989%)" fill-opacity="1"><g transform="translate(209.355406, 250.845567)"><g><path d="M 6.171875 -4.640625 C 6.296875 -4.890625 6.378906 -5.003906 6.421875 -4.984375 C 6.460938 -4.960938 6.472656 -4.859375 6.453125 -4.671875 C 6.429688 -4.492188 6.394531 -4.285156 6.34375 -4.046875 C 6.25 -3.691406 6.097656 -3.28125 5.890625 -2.8125 C 5.691406 -2.351562 5.46875 -1.929688 5.21875 -1.546875 C 4.84375 -1.015625 4.378906 -0.613281 3.828125 -0.34375 C 3.273438 -0.0820312 2.773438 -0.0195312 2.328125 -0.15625 C 1.878906 -0.289062 1.617188 -0.710938 1.546875 -1.421875 C 1.535156 -2.015625 1.585938 -2.664062 1.703125 -3.375 C 1.742188 -3.675781 1.785156 -3.96875 1.828125 -4.25 C 1.828125 -4.351562 1.800781 -4.429688 1.75 -4.484375 C 1.695312 -4.535156 1.628906 -4.554688 1.546875 -4.546875 C 1.484375 -4.546875 1.421875 -4.546875 1.359375 -4.546875 C 1.003906 -4.484375 0.640625 -4.488281 0.265625 -4.5625 C -0.171875 -4.695312 -0.421875 -4.914062 -0.484375 -5.21875 C -0.554688 -5.519531 -0.550781 -5.921875 -0.46875 -6.421875 C -0.425781 -6.773438 -0.296875 -7.039062 -0.078125 -7.21875 C 0.140625 -7.394531 0.398438 -7.46875 0.703125 -7.4375 C 1.109375 -7.394531 1.304688 -7.234375 1.296875 -6.953125 C 1.285156 -6.679688 1.207031 -6.390625 1.0625 -6.078125 C 0.9375 -5.804688 0.867188 -5.582031 0.859375 -5.40625 C 0.847656 -5.226562 1 -5.164062 1.3125 -5.21875 C 1.382812 -5.238281 1.460938 -5.265625 1.546875 -5.296875 C 1.660156 -5.335938 1.789062 -5.375 1.9375 -5.40625 C 2.09375 -5.445312 2.289062 -5.457031 2.53125 -5.4375 C 2.8125 -5.425781 3 -5.296875 3.09375 -5.046875 C 3.1875 -4.796875 3.222656 -4.484375 3.203125 -4.109375 C 3.191406 -3.734375 3.160156 -3.351562 3.109375 -2.96875 C 3.035156 -2.488281 3 -2.070312 3 -1.71875 C 3 -1.375 3.097656 -1.175781 3.296875 -1.125 C 3.566406 -1.050781 3.960938 -1.289062 4.484375 -1.84375 C 5.003906 -2.394531 5.566406 -3.328125 6.171875 -4.640625 Z M 6.171875 -4.640625 "/></g></g></g><g fill="rgb(54.119873%, 52.549744%, 50.588989%)" fill-opacity="1"><g transform="translate(221.792849, 250.845567)"><g><path d="M 5.015625 -3.921875 C 4.816406 -3.515625 4.476562 -3.054688 4 -2.546875 C 3.519531 -2.046875 2.972656 -1.726562 2.359375 -1.59375 C 1.753906 -1.457031 1.175781 -1.664062 0.625 -2.21875 C 0.40625 -2.46875 0.242188 -2.75 0.140625 -3.0625 C 0.046875 -3.382812 0.0078125 -3.703125 0.03125 -4.015625 C 0.03125 -4.097656 0.03125 -4.203125 0.03125 -4.328125 C 0.03125 -4.660156 0.046875 -5.039062 0.078125 -5.46875 C 0.109375 -5.90625 0.171875 -6.296875 0.265625 -6.640625 C 0.367188 -6.992188 0.53125 -7.207031 0.75 -7.28125 C 1.351562 -7.425781 1.679688 -7.210938 1.734375 -6.640625 C 1.734375 -6.453125 1.726562 -6.265625 1.71875 -6.078125 C 1.707031 -5.984375 1.703125 -5.890625 1.703125 -5.796875 C 1.691406 -5.523438 1.675781 -5.253906 1.65625 -4.984375 C 1.65625 -4.773438 1.648438 -4.566406 1.640625 -4.359375 C 1.617188 -3.421875 1.820312 -2.863281 2.25 -2.6875 C 2.6875 -2.507812 3.179688 -2.695312 3.734375 -3.25 C 4.296875 -3.800781 4.660156 -4.257812 4.828125 -4.625 C 5.003906 -5 5.128906 -5.078125 5.203125 -4.859375 C 5.285156 -4.648438 5.222656 -4.335938 5.015625 -3.921875 Z M 1.609375 -9.265625 C 1.523438 -9.191406 1.421875 -9.144531 1.296875 -9.125 C 1.179688 -9.113281 1.082031 -9.125 1 -9.15625 C 0.925781 -9.21875 0.878906 -9.296875 0.859375 -9.390625 C 0.835938 -9.484375 0.828125 -9.59375 0.828125 -9.71875 C 0.828125 -9.75 0.832031 -9.773438 0.84375 -9.796875 C 0.863281 -9.910156 0.894531 -10.023438 0.9375 -10.140625 C 1.0625 -10.453125 1.328125 -10.597656 1.734375 -10.578125 C 1.878906 -10.554688 1.992188 -10.492188 2.078125 -10.390625 C 2.160156 -10.296875 2.175781 -10.1875 2.125 -10.0625 C 2.03125 -9.75 1.859375 -9.484375 1.609375 -9.265625 Z M 1.609375 -9.265625 "/></g></g></g><g fill="rgb(54.119873%, 52.549744%, 50.588989%)" fill-opacity="1"><g transform="translate(233.060741, 250.845567)"><g><path d="M 10.953125 -4.96875 C 10.773438 -4.425781 10.421875 -3.804688 9.890625 -3.109375 C 9.367188 -2.410156 8.710938 -1.957031 7.921875 -1.75 C 7.140625 -1.550781 6.457031 -1.578125 5.875 -1.828125 C 5.300781 -2.085938 4.988281 -2.773438 4.9375 -3.890625 C 4.28125 -2.628906 3.65625 -1.816406 3.0625 -1.453125 C 2.476562 -1.097656 1.867188 -0.960938 1.234375 -1.046875 C 0.503906 -1.171875 0.015625 -1.453125 -0.234375 -1.890625 C -0.492188 -2.335938 -0.582031 -2.851562 -0.5 -3.4375 C -0.414062 -4.019531 -0.238281 -4.582031 0.03125 -5.125 C 0.25 -5.519531 0.546875 -5.890625 0.921875 -6.234375 C 1.296875 -6.578125 1.691406 -6.84375 2.109375 -7.03125 C 2.617188 -7.289062 3.128906 -7.410156 3.640625 -7.390625 C 4.160156 -7.378906 4.710938 -7.210938 5.296875 -6.890625 C 5.316406 -6.878906 5.328125 -6.890625 5.328125 -6.921875 C 5.328125 -6.984375 5.335938 -7.054688 5.359375 -7.140625 C 5.390625 -7.234375 5.441406 -7.304688 5.515625 -7.359375 C 5.703125 -7.492188 5.925781 -7.5625 6.1875 -7.5625 C 6.457031 -7.5625 6.664062 -7.429688 6.8125 -7.171875 C 6.832031 -6.828125 6.796875 -6.390625 6.703125 -5.859375 C 6.492188 -4.703125 6.492188 -3.867188 6.703125 -3.359375 C 6.910156 -2.847656 7.285156 -2.609375 7.828125 -2.640625 C 8.367188 -2.679688 9.066406 -3.210938 9.921875 -4.234375 C 10.785156 -5.265625 11.128906 -5.507812 10.953125 -4.96875 Z M 1.421875 -2.25 C 1.710938 -2.03125 2.050781 -2.054688 2.4375 -2.328125 C 2.820312 -2.597656 3.191406 -2.984375 3.546875 -3.484375 C 3.898438 -3.984375 4.195312 -4.476562 4.4375 -4.96875 C 4.6875 -5.46875 4.820312 -5.835938 4.84375 -6.078125 C 4.125 -6.460938 3.503906 -6.523438 2.984375 -6.265625 C 2.472656 -6.015625 2.0625 -5.597656 1.75 -5.015625 C 1.445312 -4.441406 1.265625 -3.882812 1.203125 -3.34375 C 1.148438 -2.800781 1.222656 -2.4375 1.421875 -2.25 Z M 1.421875 -2.25 "/></g></g></g><g fill="rgb(54.119873%, 52.549744%, 50.588989%)" fill-opacity="1"><g transform="translate(249.828462, 250.845567)"><g><path d="M 6.984375 -4.515625 C 7.097656 -4.773438 7.21875 -4.90625 7.34375 -4.90625 C 7.46875 -4.90625 7.507812 -4.773438 7.46875 -4.515625 C 7.257812 -3.847656 7.003906 -3.210938 6.703125 -2.609375 C 6.410156 -2.015625 6.007812 -1.476562 5.5 -1 C 5.113281 -0.613281 4.648438 -0.363281 4.109375 -0.25 C 3.378906 -0.144531 2.773438 -0.226562 2.296875 -0.5 C 1.828125 -0.78125 1.453125 -1.179688 1.171875 -1.703125 C 0.898438 -2.222656 0.695312 -2.789062 0.5625 -3.40625 C 0.425781 -4.019531 0.335938 -4.617188 0.296875 -5.203125 C 0.191406 -6.296875 0.113281 -7.734375 0.0625 -9.515625 C 0.0195312 -11.304688 0.0390625 -13.195312 0.125 -15.1875 C 0.207031 -17.1875 0.398438 -19.035156 0.703125 -20.734375 C 1.015625 -22.441406 1.46875 -23.765625 2.0625 -24.703125 C 2.40625 -25.160156 2.800781 -25.390625 3.25 -25.390625 C 3.707031 -25.398438 4.113281 -25.191406 4.46875 -24.765625 C 4.707031 -24.429688 4.882812 -24.082031 5 -23.71875 C 5.125 -23.351562 5.207031 -22.976562 5.25 -22.59375 C 5.382812 -21.289062 5.367188 -19.910156 5.203125 -18.453125 C 5.046875 -16.992188 4.789062 -15.4375 4.4375 -13.78125 C 4.09375 -12.132812 3.675781 -10.679688 3.1875 -9.421875 C 2.707031 -8.171875 2.304688 -7.175781 1.984375 -6.4375 C 1.804688 -6.144531 1.742188 -5.695312 1.796875 -5.09375 C 1.847656 -4.445312 1.96875 -3.769531 2.15625 -3.0625 C 2.351562 -2.351562 2.617188 -1.789062 2.953125 -1.375 C 3.273438 -1.03125 3.632812 -0.921875 4.03125 -1.046875 C 4.4375 -1.179688 4.835938 -1.453125 5.234375 -1.859375 C 5.628906 -2.273438 5.976562 -2.726562 6.28125 -3.21875 C 6.59375 -3.707031 6.828125 -4.140625 6.984375 -4.515625 Z M 1.828125 -14.40625 C 1.785156 -13.976562 1.742188 -13.332031 1.703125 -12.46875 C 1.671875 -11.613281 1.640625 -10.738281 1.609375 -9.84375 C 1.585938 -8.851562 1.5625 -8.082031 1.53125 -7.53125 C 1.84375 -8.238281 2.207031 -9.269531 2.625 -10.625 C 3.050781 -11.976562 3.4375 -13.570312 3.78125 -15.40625 C 4.125 -17.25 4.347656 -19.238281 4.453125 -21.375 C 4.390625 -22.625 4.238281 -23.472656 4 -23.921875 C 3.757812 -24.367188 3.492188 -24.40625 3.203125 -24.03125 C 2.921875 -23.664062 2.695312 -22.894531 2.53125 -21.71875 C 2.269531 -19.757812 2.070312 -17.800781 1.9375 -15.84375 C 1.894531 -15.363281 1.859375 -14.882812 1.828125 -14.40625 Z M 1.828125 -14.40625 "/></g></g></g></svg>